<?xml version="1.0" standalone="no"?>
<!DOCTYPE svg PUBLIC "-//W3C//DTD SVG 20010904//EN"
 "http://www.w3.org/TR/2001/REC-SVG-20010904/DTD/svg10.dtd">
<svg version="1.0" xmlns="http://www.w3.org/2000/svg"
 width="40.000000pt" height="40.000000pt" viewBox="0 0 40.000000 40.000000"
 preserveAspectRatio="xMidYMid meet">

<g transform="translate(0.000000,40.000000) scale(0.100000,-0.100000)"
fill="#000000" stroke="none">
<path d="M150 361 c0 -5 -3 -18 -7 -28 -6 -15 -5 -16 9 -5 9 7 19 9 22 4 7
-13 -4 -22 -26 -22 -15 0 -18 -8 -18 -45 0 -25 4 -45 9 -45 6 0 7 16 4 35 -5
30 -2 36 21 45 30 11 30 11 14 45 -11 24 -28 34 -28 16z"/>
<path d="M217 349 c-4 -14 -2 -19 8 -15 7 2 16 -2 19 -11 5 -12 1 -14 -14 -10
-25 6 -25 2 0 -23 17 -17 18 -24 9 -42 -8 -16 -8 -22 2 -29 32 -20 39 29 13
104 -17 51 -29 59 -37 26z"/>
<path d="M160 270 c-12 -7 -12 -12 -2 -22 9 -9 15 -9 24 0 8 8 9 15 2 22 -5 5
-15 6 -24 0z"/>
<path d="M251 134 c0 -11 3 -14 6 -6 3 7 2 16 -1 19 -3 4 -6 -2 -5 -13z"/>
<path d="M281 87 c-9 -24 0 -33 24 -23 20 7 19 32 0 40 -10 4 -19 -2 -24 -17z"/>
</g>
</svg>
