<?xml version="1.0" standalone="no"?>
<!DOCTYPE svg PUBLIC "-//W3C//DTD SVG 20010904//EN"
 "http://www.w3.org/TR/2001/REC-SVG-20010904/DTD/svg10.dtd">
<svg version="1.0" xmlns="http://www.w3.org/2000/svg"
 width="40.000000pt" height="68.000000pt" viewBox="0 0 40.000000 68.000000"
 preserveAspectRatio="xMidYMid meet">

<g transform="translate(0.000000,68.000000) scale(0.100000,-0.100000)"
fill="#000000" stroke="none">
<path d="M211 657 c-15 -19 -61 -144 -61 -167 0 -11 5 -20 10 -20 6 0 10 6 10
13 0 23 37 50 60 44 11 -3 18 -1 14 4 -3 5 11 9 32 9 31 0 35 -2 24 -15 -11
-13 -10 -14 4 -9 24 9 56 -24 56 -57 0 -18 -9 -35 -27 -48 -14 -12 -27 -20
-29 -18 -2 1 -10 16 -18 32 l-16 30 2 -27 c1 -15 7 -24 12 -21 5 4 7 -1 2 -12
-4 -10 -2 -21 3 -24 13 -8 18 -36 6 -36 -6 0 -9 6 -9 12 1 10 -3 10 -20 1 -27
-14 -36 -23 -14 -15 9 3 22 -1 29 -9 8 -10 15 -11 25 -3 15 12 15 49 0 49 -6
0 -6 4 1 11 8 8 18 6 38 -7 36 -24 45 -9 45 82 0 65 -31 204 -46 204 -3 0 -16
-25 -30 -55 -24 -52 -54 -74 -54 -39 0 11 -5 14 -16 10 -9 -3 -21 -6 -27 -7
-7 0 -3 -4 8 -9 18 -8 17 -9 -7 -9 -33 -1 -47 18 -25 34 10 7 17 18 17 26 1
10 5 8 15 -5 21 -27 26 -16 14 27 -11 41 -12 42 -28 24z m139 -70 c0 -13 5
-28 11 -34 21 -21 0 -34 -27 -17 -28 19 -31 34 -6 35 9 0 12 3 5 5 -7 3 -9 12
-6 20 8 22 23 17 23 -9z"/>
<path d="M250 489 c0 -16 -3 -20 -8 -11 -5 7 -16 10 -25 6 -9 -3 -14 -10 -11
-15 3 -5 1 -9 -3 -9 -12 0 -14 -38 -2 -46 24 -14 75 73 55 93 -3 4 -6 -5 -6
-18z"/>
<path d="M288 470 c2 -16 8 -27 13 -24 13 8 11 30 -4 43 -11 8 -13 5 -9 -19z"/>
<path d="M137 424 c3 -7 12 -16 22 -19 9 -3 22 -18 28 -35 7 -19 18 -30 30
-29 16 1 16 2 1 6 -10 2 -21 17 -24 31 -10 47 -12 49 -37 54 -18 3 -24 1 -20
-8z"/>
<path d="M131 334 c0 -11 3 -14 6 -6 3 7 2 16 -1 19 -3 4 -6 -2 -5 -13z"/>
<path d="M158 322 c12 -8 72 -4 72 4 0 2 -19 4 -42 4 -26 0 -38 -4 -30 -8z"/>
<path d="M94 283 c2 -9 8 -18 15 -19 6 -1 7 0 1 3 -5 2 -8 9 -5 13 3 5 1 11
-4 14 -5 4 -8 -2 -7 -11z"/>
<path d="M155 280 c-19 -8 -19 -9 3 -9 12 -1 22 4 22 9 0 6 -1 10 -2 9 -2 0
-12 -4 -23 -9z"/>
<path d="M347 263 c-11 -10 -8 -43 3 -43 6 0 10 11 10 25 0 26 -2 29 -13 18z"/>
<path d="M148 213 c5 -21 7 -23 10 -9 2 10 0 22 -6 28 -6 6 -7 0 -4 -19z"/>
<path d="M181 204 c0 -11 3 -14 6 -6 3 7 2 16 -1 19 -3 4 -6 -2 -5 -13z"/>
<path d="M28 163 c-23 -6 -23 -35 0 -56 22 -20 93 -24 74 -5 -20 20 -14 48 11
49 18 1 16 3 -8 9 -35 9 -53 10 -77 3z"/>
<path d="M270 161 l-25 -7 28 -6 c19 -4 27 -1 27 8 0 8 -1 14 -2 13 -2 -1 -14
-4 -28 -8z"/>
<path d="M228 93 c7 -3 16 -2 19 1 4 3 -2 6 -13 5 -11 0 -14 -3 -6 -6z"/>
<path d="M273 45 c0 -8 4 -12 9 -9 5 3 6 10 3 15 -9 13 -12 11 -12 -6z"/>
</g>
</svg>
