<?xml version="1.0" standalone="no"?>
<!DOCTYPE svg PUBLIC "-//W3C//DTD SVG 20010904//EN"
 "http://www.w3.org/TR/2001/REC-SVG-20010904/DTD/svg10.dtd">
<svg version="1.0" xmlns="http://www.w3.org/2000/svg"
 width="959.000000pt" height="810.000000pt" viewBox="0 0 959.000000 810.000000"
 preserveAspectRatio="xMidYMid meet">
<metadata>
Created by potrace 1.16, written by Peter Selinger 2001-2019
</metadata>
<g transform="translate(0.000000,810.000000) scale(0.100000,-0.100000)"
fill="#000000" stroke="none">
<path d="M3908 7586 c-40 -14 -85 -49 -122 -93 -48 -58 -445 -757 -596 -1048
-45 -88 -94 -182 -108 -208 l-26 -48 36 -36 36 -36 59 48 c111 92 241 131 400
121 72 -4 94 -2 103 9 17 20 -25 36 -115 42 -38 3 -75 10 -82 15 -16 13 7 65
104 237 162 288 214 371 234 371 27 0 34 -22 70 -230 17 -102 33 -187 35 -189
2 -3 46 35 97 84 50 49 103 99 116 111 28 26 30 7 -45 464 -52 320 -64 364
-104 385 -35 18 -44 18 -92 1z"/>
<path d="M4824 7560 c-26 -10 -54 -48 -54 -73 0 -10 18 -35 40 -56 46 -43 52
-78 17 -86 -29 -8 -47 -4 -65 13 -18 16 -21 13 -25 -24 -2 -17 -6 -34 -9 -39
-3 -6 -43 -183 -88 -395 -135 -636 -149 -694 -167 -708 -19 -13 -111 -9 -169
9 -45 14 -61 55 -79 199 -27 209 -47 331 -55 328 -5 -2 -58 -52 -120 -112
l-112 -108 21 -119 c23 -130 26 -175 12 -183 -5 -4 -36 -9 -69 -12 l-60 -7
-55 52 c-57 54 -68 59 -86 38 -8 -11 -5 -19 15 -38 67 -62 78 -163 22 -198
-12 -8 -63 -24 -114 -36 -50 -13 -126 -39 -168 -59 -67 -31 -77 -38 -71 -56 7
-21 8 -20 -59 -24 -16 -1 -36 -12 -47 -24 -11 -14 -20 -18 -24 -12 -4 6 -17
10 -28 9 -54 -4 -79 3 -112 32 -61 54 -65 128 -12 201 l19 26 -32 36 c-18 20
-36 36 -40 36 -11 0 -117 -250 -154 -362 -38 -114 -86 -305 -86 -338 0 -11 3
-20 8 -20 20 1 122 125 160 197 24 44 56 96 72 114 25 30 33 34 76 33 34 -1
54 4 68 17 23 22 35 17 16 -6 -11 -13 -9 -15 14 -15 34 0 96 26 96 40 0 6 5 8
10 5 6 -3 54 14 108 38 137 63 190 84 242 98 73 18 100 37 119 82 32 74 22 72
330 72 205 0 282 -3 299 -13 19 -11 22 -21 22 -75 0 -57 3 -66 30 -92 49 -47
53 -74 30 -231 -41 -280 -52 -321 -130 -489 -48 -101 -100 -250 -100 -284 0
-24 48 -69 53 -50 3 8 22 70 45 139 79 246 138 335 262 394 58 27 75 31 150
30 112 -1 188 -32 299 -121 98 -78 176 -183 221 -297 45 -113 60 -194 60 -330
l0 -118 269 261 268 261 -4 72 c-10 189 -26 342 -44 431 -35 172 -161 496
-355 911 -93 200 -70 170 -372 479 -101 104 -181 192 -177 195 3 4 50 -38 103
-93 236 -245 312 -321 312 -312 0 14 -260 532 -309 615 -76 130 -160 183 -237
152z m106 -238 c0 -14 -11 -21 -26 -15 -21 8 -17 23 6 23 11 0 20 -4 20 -8z
m-134 -38 c-22 -21 -31 -12 -16 16 8 15 15 19 22 12 8 -8 6 -16 -6 -28z m320
-622 c126 -251 204 -431 265 -609 15 -46 27 -83 25 -83 -14 0 -119 36 -148 51
-21 11 -70 49 -110 85 -83 74 -161 115 -265 139 -39 9 -77 23 -83 31 -10 11 2
76 54 306 78 341 81 350 110 346 17 -2 48 -58 152 -266z m-238 -467 c97 -23
171 -63 235 -126 68 -68 102 -135 93 -184 -9 -45 -53 -90 -102 -105 -38 -12
-47 -9 -184 45 -79 31 -198 72 -264 91 -139 39 -166 58 -166 116 0 48 32 112
66 135 65 42 209 55 322 28z"/>
<path d="M3389 5571 c-77 -24 -155 -79 -233 -161 -113 -120 -195 -272 -237
-435 -41 -163 -29 -409 32 -630 10 -38 25 -135 33 -215 17 -168 48 -285 107
-403 126 -251 305 -412 499 -447 36 -7 88 -17 117 -22 60 -11 98 -47 109 -103
8 -46 20 -52 50 -24 21 19 24 30 19 60 -8 44 4 55 67 64 31 5 55 16 72 34 l27
28 -143 6 c-321 14 -437 49 -561 169 -166 164 -275 428 -293 717 -14 213 44
305 229 363 76 23 341 82 622 138 215 42 249 56 229 88 -12 18 -58 22 -106 8
-48 -14 -61 13 -82 164 -18 134 -47 286 -63 326 -4 12 -62 78 -127 148 -90 95
-128 128 -155 136 -54 15 -149 11 -212 -9z m255 -86 c145 -73 215 -227 247
-548 15 -145 9 -163 -54 -172 -80 -12 -80 -12 -100 109 -21 128 -39 171 -80
193 -38 19 -101 19 -132 -1 -56 -37 -106 -164 -110 -281 -1 -44 -3 -83 -4 -87
-2 -14 -56 -35 -145 -57 -138 -34 -207 -77 -244 -152 l-20 -40 -11 52 c-68
318 0 607 201 851 47 57 155 130 223 152 74 23 159 16 229 -19z"/>
<path d="M3755 5471 c38 -39 71 -71 73 -71 9 0 -63 90 -86 107 -57 41 -54 33
13 -36z"/>
<path d="M2848 5452 l-55 -57 -14 -115 c-11 -89 -13 -233 -11 -631 3 -362 0
-570 -10 -695 -21 -284 -13 -378 42 -484 23 -44 209 -229 274 -272 32 -21 53
-44 59 -63 5 -16 24 -45 41 -63 l31 -33 6 28 c24 104 3 149 -89 197 -185 98
-290 262 -295 462 -1 43 4 174 12 289 12 173 12 274 3 575 -9 258 -9 409 -2
515 10 141 38 311 60 371 6 15 9 28 7 30 -2 2 -29 -22 -59 -54z"/>
<path d="M5730 4913 c-96 -93 -218 -211 -270 -261 l-96 -91 -12 -71 c-24 -142
-101 -298 -190 -385 -49 -48 -164 -112 -235 -131 -29 -8 -82 -14 -118 -14 -59
0 -68 -3 -94 -30 -20 -21 -25 -31 -14 -32 8 -1 113 -3 234 -3 217 0 221 0 286
-27 36 -16 72 -28 80 -28 7 0 -24 38 -71 85 -47 47 -80 85 -75 85 6 0 53 -43
105 -95 117 -117 122 -119 388 -120 174 0 194 -2 203 -18 19 -33 -22 -251 -62
-329 -24 -46 -24 -50 1 -78 24 -28 29 -24 64 46 61 122 89 364 90 775 l1 306
45 44 c29 28 52 63 64 97 12 35 31 63 59 87 37 32 40 38 31 63 -6 17 -35 44
-81 75 -87 57 -123 99 -143 169 l-15 51 -175 -170z"/>
<path d="M4820 4996 c-112 -63 -142 -421 -43 -520 47 -47 130 -46 179 2 79 78
109 263 64 397 -31 94 -63 127 -126 131 -31 3 -58 -1 -74 -10z"/>
<path d="M4267 4894 c-18 -59 -29 -231 -24 -343 15 -308 122 -515 313 -607 39
-19 80 -34 91 -34 10 0 32 13 47 29 l27 29 -37 7 c-65 12 -161 61 -212 109
-61 58 -94 118 -129 237 -25 89 -27 105 -28 322 -1 217 -2 228 -22 248 -20 20
-21 20 -26 3z"/>
<path d="M3374 4560 c-208 -30 -288 -132 -238 -301 43 -143 128 -253 241 -310
60 -30 76 -34 148 -34 72 0 88 4 150 35 49 25 95 60 156 120 92 91 120 138
127 212 6 60 -32 144 -83 183 -109 83 -316 122 -501 95z m283 -147 c13 -19 12
-24 -7 -43 -15 -15 -31 -20 -53 -18 -26 2 -33 8 -35 30 -2 18 4 31 20 42 29
21 57 17 75 -11z"/>
<path d="M4343 3703 c-24 -9 -14 -41 16 -51 24 -9 32 -6 56 15 21 20 24 27 13
34 -14 9 -65 11 -85 2z"/>
<path d="M4433 3658 c-11 -13 -23 -39 -27 -59 -10 -56 -85 -159 -147 -202 -30
-21 -80 -45 -111 -54 -38 -11 -68 -27 -89 -49 l-33 -34 35 0 c19 0 61 7 92 15
133 35 225 108 291 234 20 39 41 71 45 71 4 0 22 -7 39 -16 66 -32 70 12 7 73
-51 49 -72 53 -102 21z"/>
<path d="M5725 3353 c-50 -52 -55 -77 -45 -214 28 -362 88 -661 209 -1041 26
-84 56 -186 66 -226 l17 -72 67 61 c36 34 72 75 79 90 8 19 14 105 18 242 3
116 10 224 16 239 6 15 26 37 45 49 49 30 93 20 135 -32 82 -102 85 -104 102
-90 9 8 33 45 53 83 64 122 154 176 243 145 40 -15 46 -15 62 -1 37 35 -11 64
-105 64 -87 -1 -175 -42 -137 -65 6 -3 10 -11 10 -17 0 -6 -9 -3 -21 8 -21 19
-21 18 -47 -11 -15 -17 -39 -46 -53 -65 -26 -34 -26 -34 -50 -17 -13 10 -39
29 -58 42 -48 35 -131 35 -184 0 -65 -45 -70 -63 -83 -330 -7 -132 -16 -250
-21 -263 -7 -18 -18 7 -65 145 -95 280 -132 420 -174 653 -33 183 -54 359 -54
450 0 65 4 81 26 114 l26 38 -25 25 -24 25 -28 -29z"/>
<path d="M3872 3118 c-19 -19 -14 -30 8 -18 11 6 20 15 20 20 0 14 -14 12 -28
-2z"/>
<path d="M3135 2898 c-3 -95 -5 -240 -3 -323 l3 -149 32 29 31 30 5 263 6 262
-26 30 c-13 17 -28 30 -33 30 -4 0 -11 -78 -15 -172z"/>
<path d="M6807 2578 c-17 -12 -17 -16 -2 -50 8 -21 15 -55 15 -77 0 -22 5 -43
11 -46 7 -5 5 -13 -7 -26 -11 -12 -14 -27 -10 -44 9 -36 54 -34 89 4 83 94
218 47 267 -92 23 -66 25 -108 6 -196 -13 -62 -13 -63 13 -94 l26 -30 13 44
c22 76 27 206 9 276 -35 136 -113 196 -259 197 -86 2 -91 4 -108 68 -6 20 -18
46 -28 58 -15 18 -20 19 -35 8z"/>
<path d="M3161 2426 l-33 -34 11 -282 c6 -156 11 -383 11 -507 0 -259 -1 -264
-83 -316 -65 -42 -97 -79 -132 -154 -65 -137 -54 -249 28 -297 87 -51 385 -92
592 -82 146 7 244 25 303 55 56 29 110 87 124 133 15 51 32 43 36 -18 4 -71
18 -91 78 -114 128 -47 247 -64 464 -64 186 1 228 4 455 38 209 32 279 39 425
40 200 2 214 6 287 85 43 46 43 46 111 46 37 0 122 -8 190 -19 255 -39 496 -8
651 84 81 48 173 134 201 191 l22 42 -22 47 c-12 26 -19 56 -16 66 3 11 33 48
67 84 108 115 200 260 259 410 19 48 19 49 -1 74 -11 14 -24 26 -28 26 -4 0
-14 -19 -20 -42 -55 -185 -189 -368 -404 -552 -51 -43 -67 -64 -65 -80 3 -19
8 -21 59 -18 99 5 103 -35 13 -117 -64 -59 -165 -111 -227 -118 -36 -4 -48 -1
-75 22 -34 28 -34 30 -51 191 -18 177 -80 304 -221 459 l-82 89 6 51 7 50 -58
-57 -58 -58 0 -222 c0 -219 0 -224 -26 -279 -40 -85 -123 -156 -158 -134 -7 4
-11 83 -11 228 l0 221 -34 -33 -35 -34 -3 -271 c-3 -311 -4 -314 -86 -340 -63
-20 -267 -49 -292 -41 -11 4 -22 18 -26 33 -3 15 -9 35 -14 44 -5 9 -6 19 -1
22 5 3 12 29 15 58 4 29 16 67 27 85 35 56 16 56 -38 1 -52 -53 -52 -53 -57
-131 -3 -43 -10 -86 -16 -96 -11 -21 -61 -34 -96 -25 -27 7 -31 19 -38 122 -3
52 -9 79 -22 93 -16 17 -16 22 -4 29 8 6 21 10 28 10 9 0 12 75 12 343 0 380
8 492 40 561 25 57 81 115 135 141 56 27 176 32 251 10 78 -22 125 -57 226
-165 86 -91 113 -105 138 -75 18 22 1 51 -85 143 -125 134 -244 192 -396 192
-83 0 -181 -28 -239 -70 -38 -27 -54 -25 -67 10 -13 35 -37 47 -58 30 -13 -11
-15 -85 -15 -539 0 -366 3 -530 11 -538 8 -8 8 -13 0 -17 -7 -5 -11 -48 -11
-116 0 -100 -2 -111 -24 -138 -15 -17 -47 -36 -78 -46 -65 -22 -179 -32 -203
-18 -13 6 -28 6 -48 -1 -25 -8 -32 -7 -44 9 -23 30 -11 149 22 214 28 56 27
80 -4 80 -43 0 -91 -107 -91 -201 0 -68 -11 -104 -36 -113 -27 -10 -205 14
-233 31 -21 14 -23 20 -18 67 3 28 17 80 31 116 26 64 34 120 17 120 -5 0 -23
-16 -39 -36 -30 -36 -55 -108 -67 -194 -11 -74 -14 -80 -45 -80 -40 0 -75 18
-90 46 -19 34 -5 138 26 201 25 51 105 133 130 133 21 0 76 52 90 87 11 24 14
96 14 296 l0 263 -40 39 -41 40 2 -301 c1 -337 2 -332 -69 -372 -44 -25 -113
-95 -135 -139 -21 -39 -41 -55 -62 -47 -16 6 -16 44 -10 573 l7 566 -25 24
c-58 53 -56 74 -59 -649 l-3 -662 -31 -28 c-25 -21 -50 -31 -120 -43 -251 -44
-274 -36 -254 89 6 37 17 79 25 94 8 15 17 46 21 69 8 51 -9 55 -50 12 -33
-34 -56 -114 -56 -196 0 -33 -4 -65 -8 -71 -11 -17 -42 -25 -117 -30 -88 -6
-153 10 -161 40 -8 33 20 154 55 235 27 64 28 71 12 71 -54 0 -90 -65 -120
-215 l-17 -90 -42 1 c-64 1 -82 23 -82 102 0 126 38 192 154 269 43 29 84 61
92 71 30 43 16 1099 -15 1135 -4 4 -22 -8 -40 -27z"/>
<path d="M4281 2231 c-15 -10 -16 -29 -13 -168 2 -88 4 -94 33 -128 17 -19 35
-35 40 -35 14 0 11 314 -3 328 -14 14 -37 15 -57 3z"/>
<path d="M5719 1683 c-2 -30 3 -118 7 -122 2 -3 18 8 34 24 24 23 30 37 30 72
0 42 0 43 -35 43 -26 0 -35 -4 -36 -17z"/>
<path d="M5308 1173 c-30 -36 -30 -47 0 -19 18 17 32 31 32 33 0 9 -19 1 -32
-14z"/>
</g>
</svg>
