<svg width="35" height="35" viewBox="0 0 35 35" fill="none" xmlns="http://www.w3.org/2000/svg">
<path d="M7.10938 26.25C7.71344 26.25 8.20312 25.7603 8.20312 25.1562C8.20312 24.5522 7.71344 24.0625 7.10938 24.0625C6.50531 24.0625 6.01562 24.5522 6.01562 25.1562C6.01562 25.7603 6.50531 26.25 7.10938 26.25Z" fill="#231F20"/>
<path d="M22.9688 23.5156H12.0312V26.7969H22.9688V23.5156Z" fill="#231F20"/>
<path d="M27.8906 26.25C28.4947 26.25 28.9844 25.7603 28.9844 25.1562C28.9844 24.5522 28.4947 24.0625 27.8906 24.0625C27.2866 24.0625 26.7969 24.5522 26.7969 25.1562C26.7969 25.7603 27.2866 26.25 27.8906 26.25Z" fill="#231F20"/>
<path d="M35 10.3901C35 10.0877 34.7555 9.8432 34.4531 9.8432H32.8125V5.46875C32.8125 2.44836 30.3636 0 27.3438 0H7.65625C4.63586 0 2.1875 2.44891 2.1875 5.46875V9.8432H0.546875C0.244453 9.8432 0 10.0877 0 10.3901V15.312C0 16.52 0.979453 17.5 2.1875 17.5V28.4375C2.1875 29.6466 3.16586 30.625 4.375 30.625V34.4531C4.375 34.7555 4.61945 35 4.92188 35H9.29688C9.5993 35 9.84375 34.7555 9.84375 34.4531V30.625H25.1562V34.4531C25.1562 34.7555 25.4007 35 25.7031 35H30.0781C30.3805 35 30.625 34.7555 30.625 34.4531V30.625C31.8341 30.625 32.8125 29.6466 32.8125 28.4375V17.5C34.0205 17.5 35 16.5205 35 15.3125V10.3901ZM2.1875 16.4062C1.58375 16.4062 1.09375 15.9163 1.09375 15.3125V10.937H2.1875V16.4062ZM15.3125 2.73438H19.6875C19.9899 2.73438 20.2344 2.97883 20.2344 3.28125C20.2344 3.58367 19.9899 3.82812 19.6875 3.82812H15.3125C15.0101 3.82812 14.7656 3.58367 14.7656 3.28125C14.7656 2.97883 15.0101 2.73438 15.3125 2.73438ZM8.75 33.9062H5.46875V30.625H8.75V33.9062ZM7.10938 27.3438C5.90133 27.3438 4.92188 26.3643 4.92188 25.1562C4.92188 23.9482 5.90133 22.9688 7.10938 22.9688C8.31742 22.9688 9.29688 23.9482 9.29688 25.1562C9.29688 26.3643 8.31742 27.3438 7.10938 27.3438ZM8.75 19.6875H5.46875V6.5625H16.9531V19.6875H15.3125C15.3125 17.8752 13.8436 16.4062 12.0312 16.4062C10.2189 16.4062 8.75 17.8752 8.75 19.6875ZM12.0312 17.5C13.2393 17.5 14.2188 18.4795 14.2188 19.6875H9.84375C9.84375 18.4795 10.8232 17.5 12.0312 17.5ZM24.0625 27.3438C24.0625 27.6462 23.818 27.8906 23.5156 27.8906H11.4844C11.182 27.8906 10.9375 27.6462 10.9375 27.3438V22.9688C10.9375 22.6663 11.182 22.4219 11.4844 22.4219H23.5156C23.818 22.4219 24.0625 22.6663 24.0625 22.9688V27.3438ZM18.0469 19.6875V6.5625H29.5312V19.6875H18.0469ZM29.5312 33.9062H26.25V30.625H29.5312V33.9062ZM27.8906 27.3438C26.6826 27.3438 25.7031 26.3643 25.7031 25.1562C25.7031 23.9482 26.6826 22.9688 27.8906 22.9688C29.0987 22.9688 30.0781 23.9482 30.0781 25.1562C30.0781 26.3643 29.0987 27.3438 27.8906 27.3438ZM33.9062 15.3125C33.9062 15.9163 33.4162 16.4062 32.8125 16.4062V10.937H33.9062V15.3125Z" fill="#231F20"/>
<path d="M27.1835 7.81705C26.9696 7.60322 26.624 7.60322 26.4102 7.81705C26.1964 8.03088 26.1964 8.3765 26.4102 8.59033L27.5039 9.68408C27.6106 9.79072 27.7506 9.84431 27.8906 9.84431C28.0306 9.84431 28.1706 9.79072 28.2772 9.68408C28.491 9.47025 28.491 9.12463 28.2772 8.9108L27.1835 7.81705Z" fill="#231F20"/>
<path d="M24.4491 7.81644C24.2353 7.60261 23.8896 7.60261 23.6758 7.81644C23.462 8.03027 23.462 8.37589 23.6758 8.58972L27.5039 12.4178C27.6106 12.5245 27.7506 12.5781 27.8906 12.5781C28.0306 12.5781 28.1706 12.5245 28.2772 12.4178C28.491 12.204 28.491 11.8584 28.2772 11.6446L24.4491 7.81644Z" fill="#231F20"/>
</svg>
