<?xml version="1.0" encoding="UTF-8"?>
<svg version="1.1" xmlns="http://www.w3.org/2000/svg" width="31" height="51">
<path d="M0 0 C0.99 0 1.98 0 3 0 C3 0.66 3 1.32 3 2 C3.66 2.33 4.32 2.66 5 3 C5.73075648 5.3140622 6.40138258 7.64828869 7 10 C7.99 7.03 8.98 4.06 10 1 C11.65 0.67 13.3 0.34 15 0 C15.33 0.99 15.66 1.98 16 3 C15.67 3.66 15.34 4.32 15 5 C15.66 5.33 16.32 5.66 17 6 C18.07002473 11.3043703 18.20295212 16.59866457 18.31640625 21.99609375 C18.33718735 22.82963882 18.35796844 23.6631839 18.37937927 24.52198792 C18.44427856 27.16041561 18.50347978 29.79893491 18.5625 32.4375 C18.60574206 34.23633724 18.64935808 36.03516554 18.69335938 37.83398438 C18.79989799 42.2225646 18.90132975 46.6112361 19 51 C14.95847085 51.08746928 10.91718695 51.14054982 6.875 51.1875 C5.73289062 51.21263672 4.59078125 51.23777344 3.4140625 51.26367188 C-7.0512447 51.35493909 -7.0512447 51.35493909 -12 48 C-12 45.36 -12 42.72 -12 40 C-8.37673261 38.7922442 -7.35853631 39.45688872 -4 41 C-4.15936035 40.29512451 -4.3187207 39.59024902 -4.48291016 38.86401367 C-5.41218796 33.71700806 -5.3108347 28.53030569 -5.375 23.3125 C-5.43107422 21.6119043 -5.43107422 21.6119043 -5.48828125 19.87695312 C-5.5695748 12.04115837 -4.17784132 6.64811035 0 0 Z " fill="#6C95AF" transform="translate(12,0)"/>
<path d="M0 0 C1.65 0.33 3.3 0.66 5 1 C4.01 1.495 4.01 1.495 3 2 C3 3.32 3 4.64 3 6 C3.66 6 4.32 6 5 6 C5.33 5.01 5.66 4.02 6 3 C5.67 5.31 5.34 7.62 5 10 C4.34 10 3.68 10 3 10 C3 11.32 3 12.64 3 14 C5.78863007 15.39431504 7.92078868 15.25660094 11 15 C11.66 14.01 12.32 13.02 13 12 C15.125 11.3125 15.125 11.3125 17 11 C17.1958691 14.81211903 17.38029565 18.62470534 17.5625 22.4375 C17.61857422 23.52611328 17.67464844 24.61472656 17.73242188 25.73632812 C17.78076172 26.77080078 17.82910156 27.80527344 17.87890625 28.87109375 C17.9260376 29.82943115 17.97316895 30.78776855 18.02172852 31.77514648 C18 34 18 34 17 35 C14.65012738 35.23527773 12.29443961 35.41386417 9.9375 35.5625 C8.64714844 35.64628906 7.35679688 35.73007812 6.02734375 35.81640625 C5.02832031 35.87699219 4.02929688 35.93757813 3 36 C3.04898437 35.21367188 3.09796875 34.42734375 3.1484375 33.6171875 C3.09945313 32.75351562 3.05046875 31.88984375 3 31 C2.21625 30.38125 1.4325 29.7625 0.625 29.125 C-2.83176365 26.32666752 -3.20561651 24.33300087 -4 20 C-4.13676554 17.30713373 -4.09473443 14.69993126 -4 12 C-2.35 11.67 -0.7 11.34 1 11 C0.34 10.01 -0.32 9.02 -1 8 C-1.32727273 2.65454545 -1.32727273 2.65454545 0 0 Z " fill="#85C6F3" transform="translate(12,14)"/>
<path d="M0 0 C0.99 0 1.98 0 3 0 C3 0.66 3 1.32 3 2 C3.66 2.33 4.32 2.66 5 3 C5.6875 4.9375 5.6875 4.9375 6 7 C5.67 7.66 5.34 8.32 5 9 C4.34 9 3.68 9 3 9 C2.34 8.01 1.68 7.02 1 6 C0.34 8.31 -0.32 10.62 -1 13 C0.65 12.67 2.3 12.34 4 12 C4.33 12.66 4.66 13.32 5 14 C3.35 14 1.7 14 0 14 C-0.020625 15.258125 -0.04125 16.51625 -0.0625 17.8125 C-0.07410156 18.52019531 -0.08570313 19.22789063 -0.09765625 19.95703125 C-0.08263217 22.20305461 -0.08263217 22.20305461 1 25 C-0.65 25.33 -2.3 25.66 -4 26 C-2.76562392 35.83805329 -2.76562392 35.83805329 2.125 43.875 C2.74375 44.24625 3.3625 44.6175 4 45 C3.505 47.475 3.505 47.475 3 50 C9.93 49.01 9.93 49.01 17 48 C17.33 46.35 17.66 44.7 18 43 C18.33 43 18.66 43 19 43 C19 45.64 19 48.28 19 51 C14.95847085 51.08746928 10.91718695 51.14054982 6.875 51.1875 C5.73289062 51.21263672 4.59078125 51.23777344 3.4140625 51.26367188 C-7.0512447 51.35493909 -7.0512447 51.35493909 -12 48 C-12 45.36 -12 42.72 -12 40 C-8.37673261 38.7922442 -7.35853631 39.45688872 -4 41 C-4.15936035 40.29512451 -4.3187207 39.59024902 -4.48291016 38.86401367 C-5.41218796 33.71700806 -5.3108347 28.53030569 -5.375 23.3125 C-5.43107422 21.6119043 -5.43107422 21.6119043 -5.48828125 19.87695312 C-5.5695748 12.04115837 -4.17784132 6.64811035 0 0 Z " fill="#78A2C2" transform="translate(12,0)"/>
<path d="M0 0 C1.0209375 0.309375 1.0209375 0.309375 2.0625 0.625 C3.3825 0.625 4.7025 0.625 6.0625 0.625 C6.6875 2.5 6.6875 2.5 7.0625 4.625 C6.4025 5.285 5.7425 5.945 5.0625 6.625 C5.3925 7.181875 5.7225 7.73875 6.0625 8.3125 C7.0625 10.625 7.0625 10.625 7.0625 15.625 C2.1125 16.12 2.1125 16.12 -2.9375 16.625 C-2.9375 14.975 -2.9375 13.325 -2.9375 11.625 C-3.5975 11.295 -4.2575 10.965 -4.9375 10.625 C-4.751875 10.068125 -4.56625 9.51125 -4.375 8.9375 C-3.86198835 6.225867 -4.2734276 4.28128961 -4.9375 1.625 C-1.9375 -0.375 -1.9375 -0.375 0 0 Z " fill="#D3ECF9" transform="translate(17.9375,33.375)"/>
<path d="M0 0 C1.65 0.33 3.3 0.66 5 1 C4.01 1.495 4.01 1.495 3 2 C3 3.32 3 4.64 3 6 C3.66 6 4.32 6 5 6 C5.33 5.01 5.66 4.02 6 3 C5.67 5.31 5.34 7.62 5 10 C4.34 10 3.68 10 3 10 C3 11.32 3 12.64 3 14 C3.66 14.66 4.32 15.32 5 16 C4.75 18.0625 4.75 18.0625 4 20 C3.34 20.33 2.68 20.66 2 21 C2.33 22.98 2.66 24.96 3 27 C2.34 27 1.68 27 1 27 C0.67 27.66 0.34 28.32 0 29 C-3.10858428 25.89141572 -3.88211273 22.11091901 -4.125 17.76171875 C-4.125 15.84069391 -4.06736293 13.9198434 -4 12 C-2.35 11.67 -0.7 11.34 1 11 C0.34 10.01 -0.32 9.02 -1 8 C-1.32727273 2.65454545 -1.32727273 2.65454545 0 0 Z " fill="#8CC6ED" transform="translate(12,14)"/>
<path d="M0 0 C0.99 0 1.98 0 3 0 C3 0.66 3 1.32 3 2 C3.66 2.33 4.32 2.66 5 3 C5.6875 4.9375 5.6875 4.9375 6 7 C5.67 7.66 5.34 8.32 5 9 C4.34 9 3.68 9 3 9 C2.34 8.01 1.68 7.02 1 6 C0.34 8.31 -0.32 10.62 -1 13 C0.65 12.67 2.3 12.34 4 12 C4.33 12.66 4.66 13.32 5 14 C3.35 14 1.7 14 0 14 C-0.020625 15.258125 -0.04125 16.51625 -0.0625 17.8125 C-0.07410156 18.52019531 -0.08570313 19.22789063 -0.09765625 19.95703125 C-0.08263217 22.20305461 -0.08263217 22.20305461 1 25 C-0.65 25.33 -2.3 25.66 -4 26 C-4 29.3 -4 32.6 -4 36 C-4.33 36 -4.66 36 -5 36 C-5.14688806 31.87538319 -5.23460044 27.75145076 -5.3125 23.625 C-5.35439453 22.46871094 -5.39628906 21.31242187 -5.43945312 20.12109375 C-5.55161773 12.17984003 -4.26505162 6.72983793 0 0 Z " fill="#313147" transform="translate(12,0)"/>
<path d="M0 0 C3 1 3 1 4 3 C3.67 3.66 3.34 4.32 3 5 C3.66 5.33 4.32 5.66 5 6 C5.9039687 10.66497443 6.16887988 15.28542486 6.31640625 20.02734375 C6.37924805 21.95610352 6.37924805 21.95610352 6.44335938 23.92382812 C6.483157 25.26171625 6.52286951 26.59960691 6.5625 27.9375 C6.60576654 29.30274562 6.64938321 30.66798018 6.69335938 32.03320312 C6.79901153 35.35537652 6.90111395 38.67761946 7 42 C6.34 42 5.68 42 5 42 C4.67 36.72 4.34 31.44 4 26 C3.01 26 2.02 26 1 26 C1 25.01 1 24.02 1 23 C1.66 23 2.32 23 3 23 C2.67 20.36 2.34 17.72 2 15 C0.35 15 -1.3 15 -3 15 C-2.67 14.01 -2.34 13.02 -2 12 C-0.35 12.33 1.3 12.66 3 13 C2.34 10.69 1.68 8.38 1 6 C-0.93798263 8.77260299 -0.93798263 8.77260299 -2 11 C-2.99 10.67 -3.98 10.34 -5 10 C-4.55090939 8.51800098 -4.09043436 7.03944764 -3.625 5.5625 C-3.36976562 4.73878906 -3.11453125 3.91507812 -2.8515625 3.06640625 C-2 1 -2 1 0 0 Z " fill="#383E54" transform="translate(24,0)"/>
<path d="M0 0 C1.65 0.33 3.3 0.66 5 1 C5 3.64 5 6.28 5 9 C4.34 9 3.68 9 3 9 C2.855625 9.969375 2.71125 10.93875 2.5625 11.9375 C2 15 2 15 1 16 C-0.52519276 15.91062197 -2.04681929 15.75462854 -3.5625 15.5625 C-4.38878906 15.46066406 -5.21507812 15.35882813 -6.06640625 15.25390625 C-6.70449219 15.17011719 -7.34257812 15.08632813 -8 15 C-7.8125 12.6875 -7.8125 12.6875 -7 10 C-4.4375 8.1875 -4.4375 8.1875 -2 7 C-1.01 7.66 -0.02 8.32 1 9 C1.33 7.35 1.66 5.7 2 4 C1.01 3.67 0.02 3.34 -1 3 C-0.67 2.01 -0.34 1.02 0 0 Z " fill="#DDC171" transform="translate(22,14)"/>
<path d="M0 0 C2.31 0.66 4.62 1.32 7 2 C6.67 5.3 6.34 8.6 6 12 C3.69 11.01 1.38 10.02 -1 9 C-1.09765625 2.84765625 -1.09765625 2.84765625 -1 1 C-0.67 0.67 -0.34 0.34 0 0 Z " fill="#2E2F46" transform="translate(1,39)"/>
<path d="M0 0 C0.5775 0.165 1.155 0.33 1.75 0.5 C4.26664369 1.14462031 4.26664369 1.14462031 8 1 C8.33 2.32 8.66 3.64 9 5 C7.02 6.32 5.04 7.64 3 9 C3 8.34 3 7.68 3 7 C1.68 6.34 0.36 5.68 -1 5 C-0.67 3.35 -0.34 1.7 0 0 Z " fill="#F59A0F" transform="translate(16,33)"/>
<path d="M0 0 C3 1 3 1 4 3 C3.67 3.66 3.34 4.32 3 5 C3.66 5.33 4.32 5.66 5 6 C5.75 7.875 5.75 7.875 6 10 C5.01 11.485 5.01 11.485 4 13 C4 11.68 4 10.36 4 9 C3.34 9 2.68 9 2 9 C1.34 8.01 0.68 7.02 0 6 C-0.66 7.65 -1.32 9.3 -2 11 C-2.99 10.67 -3.98 10.34 -5 10 C-4.55090939 8.51800098 -4.09043436 7.03944764 -3.625 5.5625 C-3.36976562 4.73878906 -3.11453125 3.91507812 -2.8515625 3.06640625 C-2 1 -2 1 0 0 Z " fill="#262738" transform="translate(24,0)"/>
<path d="M0 0 C1.65 0.33 3.3 0.66 5 1 C4.01 1.495 4.01 1.495 3 2 C3 3.32 3 4.64 3 6 C3.66 6 4.32 6 5 6 C5.33 5.01 5.66 4.02 6 3 C5.67 4.98 5.34 6.96 5 9 C3.33388095 9.042721 1.66617115 9.04063832 0 9 C-1 8 -1 8 -1.125 5.0625 C-1 2 -1 2 0 0 Z " fill="#F6F6F6" transform="translate(12,14)"/>
<path d="M0 0 C0.2475 0.598125 0.495 1.19625 0.75 1.8125 C2.20490739 4.35858793 3.47949271 5.51734865 6 7 C7.32 7 8.64 7 10 7 C10.33 8.32 10.66 9.64 11 11 C10.34 11 9.68 11 9 11 C9 11.99 9 12.98 9 14 C8.01 13.67 7.02 13.34 6 13 C6.66 13 7.32 13 8 13 C8 12.34 8 11.68 8 11 C6.68 10.34 5.36 9.68 4 9 C4 8.34 4 7.68 4 7 C2.68 6.67 1.36 6.34 0 6 C-0.38218767 4.34385343 -0.71395102 2.67542976 -1 1 C-0.67 0.67 -0.34 0.34 0 0 Z " fill="#C0DAE9" transform="translate(14,34)"/>
<path d="M0 0 C0.99 0 1.98 0 3 0 C3 0.66 3 1.32 3 2 C3.66 2.33 4.32 2.66 5 3 C5.6875 4.9375 5.6875 4.9375 6 7 C5.67 7.66 5.34 8.32 5 9 C4.34 9 3.68 9 3 9 C2.731875 8.360625 2.46375 7.72125 2.1875 7.0625 C1.11332248 4.66868314 1.11332248 4.66868314 -2 4 C-1.34 2.68 -0.68 1.36 0 0 Z " fill="#242538" transform="translate(12,0)"/>
<path d="M0 0 C2 2 2 2 2 5 C2.66 5 3.32 5 4 5 C3.67 5.99 3.34 6.98 3 8 C1.35 8.33 -0.3 8.66 -2 9 C-1.125 2.25 -1.125 2.25 0 0 Z " fill="#CFD5BD" transform="translate(13,4)"/>
<path d="M0 0 C1.65 0 3.3 0 5 0 C5.66 1.65 6.32 3.3 7 5 C5.68 5 4.36 5 3 5 C2.67 5.66 2.34 6.32 2 7 C2 6.01 2 5.02 2 4 C1.34 3.67 0.68 3.34 0 3 C0 2.01 0 1.02 0 0 Z " fill="#CAE5F5" transform="translate(13,41)"/>
<path d="M0 0 C2.76223278 2.76223278 2.57856291 5.20706617 3 9 C0.525 8.01 0.525 8.01 -2 7 C-1.34 4.69 -0.68 2.38 0 0 Z " fill="#D7DCBF" transform="translate(24,4)"/>
<path d="M0 0 C1.98 0 3.96 0 6 0 C5.67 1.65 5.34 3.3 5 5 C4.01 5 3.02 5 2 5 C1.34 3.35 0.68 1.7 0 0 Z " fill="#262635" transform="translate(19,18)"/>
<path d="M0 0 C1.65 0.33 3.3 0.66 5 1 C5 3.31 5 5.62 5 8 C4.67 6.68 4.34 5.36 4 4 C2.35 3.67 0.7 3.34 -1 3 C-0.67 2.01 -0.34 1.02 0 0 Z " fill="#F5F5F4" transform="translate(22,14)"/>
<path d="M0 0 C1.32 0.66 2.64 1.32 4 2 C4 2.66 4 3.32 4 4 C2.35 3.67 0.7 3.34 -1 3 C-0.67 3.99 -0.34 4.98 0 6 C-0.99 6.66 -1.98 7.32 -3 8 C-2.67 6.02 -2.34 4.04 -2 2 C-1.34 2 -0.68 2 0 2 C0 1.34 0 0.68 0 0 Z " fill="#868470" transform="translate(20,15)"/>
<path d="" fill="#000000" transform="translate(0,0)"/>
</svg>
