<svg width="35" height="35" viewBox="0 0 35 35" fill="none" xmlns="http://www.w3.org/2000/svg">
<g clip-path="url(#clip0_5_38)">
<path d="M6.21641 3.92732C5.48216 4.29133 4.87363 4.88216 4.44802 5.6091C4.02235 6.3361 3.77817 7.20201 3.77789 8.12705C3.77789 8.47814 4.06288 8.76334 4.41459 8.76334C4.76596 8.76334 5.05068 8.47807 5.05068 8.12705C5.05068 7.42766 5.23607 6.78228 5.54635 6.25222C5.8567 5.72216 6.29051 5.31091 6.78113 5.06783C7.09592 4.91197 7.22505 4.52991 7.06919 4.21539C6.91299 3.89977 6.5312 3.77146 6.21641 3.92732Z" fill="black"/>
<path d="M11.3118 0.665615C10.3977 0.238027 9.38636 0 8.3283 0C7.2705 0 6.25913 0.238027 5.34482 0.665615C3.97285 1.30703 2.81846 2.37159 2.00717 3.69831C1.19582 5.02619 0.725708 6.6202 0.725708 8.32843C0.725708 10.1711 1.27258 11.8805 2.20494 13.2663C3.04077 14.508 4.18941 15.4922 5.53445 16.0745V20.6337H5.45344C5.07084 20.6337 4.76076 20.9437 4.76076 21.3263V30.6585V30.6613C4.76076 32.6317 6.35818 34.2286 8.3283 34.2286C10.2985 34.2286 11.8958 32.6318 11.8958 30.6613V21.3263C11.8958 20.9437 11.5858 20.6337 11.2035 20.6337H11.1221V16.0744C12.4672 15.4922 13.6162 14.508 14.4517 13.2662C15.384 11.8804 15.9309 10.1711 15.9309 8.32836C15.9306 6.05015 15.0959 3.97674 13.7287 2.4649C13.0448 1.70933 12.2264 1.0932 11.3118 0.665615ZM8.3283 31.0991C7.80753 31.0991 7.38555 30.6771 7.38555 30.1567C7.38555 29.6356 7.80753 29.2137 8.3283 29.2137C8.84906 29.2137 9.27104 29.6356 9.27104 30.1567C9.27104 30.6771 8.84906 31.0991 8.3283 31.0991ZM8.3283 24.4997C7.80753 24.4997 7.38555 24.0771 7.38555 23.5566C7.38555 23.0356 7.80753 22.6136 8.3283 22.6136C8.84906 22.6136 9.27104 23.0356 9.27104 23.5566C9.27104 24.0771 8.84906 24.4997 8.3283 24.4997ZM13.2783 12.4769C12.5032 13.6286 11.4198 14.4923 10.1811 14.9267L9.70792 15.0921V20.6337H6.94867V15.0921L6.47548 14.9267C5.23681 14.4923 4.15338 13.6287 3.37832 12.4769C2.60327 11.3251 2.13993 9.89092 2.13993 8.32843C2.13965 6.39734 2.84861 4.66047 3.97674 3.41359C4.54084 2.79016 5.20837 2.29059 5.94378 1.94674C6.67947 1.60296 7.48208 1.41449 8.3283 1.41388C9.17459 1.41442 9.97712 1.60296 10.7128 1.94674C11.8156 2.46155 12.767 3.33033 13.4428 4.43591C14.1185 5.54148 14.5166 6.8801 14.5166 8.32836C14.5167 9.89092 14.0533 11.3251 13.2783 12.4769Z" fill="black"/>
<path d="M33.5406 1.18432C33.0893 0.731988 32.458 0.449596 31.7677 0.450074C31.0773 0.449527 30.446 0.731988 29.9947 1.18432C29.5423 1.63618 29.2599 2.26693 29.261 2.95729V10.4142C29.2599 10.7096 29.2009 10.943 29.1085 11.1395C29.0393 11.2863 28.9493 11.4135 28.8446 11.5243C28.7401 11.6357 28.6173 11.728 28.489 11.8034V2.95729C28.4897 2.26693 28.2077 1.63618 27.7554 1.18432C27.3035 0.731988 26.6722 0.449596 25.9822 0.450074C25.2923 0.449527 24.661 0.731988 24.2095 1.18432C23.7569 1.63618 23.4749 2.26693 23.4753 2.95729V11.8045C23.3051 11.7043 23.1452 11.571 23.0204 11.4078C22.9261 11.2857 22.8488 11.1467 22.7933 10.9847C22.7379 10.8227 22.7039 10.6358 22.7039 10.4141V2.95729C22.7041 2.26693 22.4222 1.63618 21.9696 1.18432C21.5181 0.731988 20.8868 0.449596 20.1969 0.450074C19.5068 0.449527 18.8755 0.731988 18.424 1.18432C17.9716 1.63618 17.6894 2.26693 17.6898 2.95729V10.8423C17.6895 11.8073 17.8706 12.6749 18.1908 13.4334C18.4307 14.0022 18.7472 14.5092 19.1152 14.9548C19.6677 15.6238 20.3339 16.1544 21.039 16.5713C21.6936 16.9578 22.3823 17.2465 23.0575 17.4581V21.4102C22.6988 21.4361 22.4149 21.732 22.4149 22.0972V31.43L22.4146 31.4327C22.4146 33.4032 24.012 35 25.9821 35C27.9523 35 29.5496 33.4032 29.5496 31.4327V22.0972C29.5496 21.732 29.2655 21.4361 28.9065 21.4102V17.4586C29.5012 17.2719 30.1061 17.026 30.689 16.7059C31.6394 16.1837 32.5362 15.463 33.1985 14.489C33.5305 14.0023 33.8006 13.4532 33.9862 12.8444C34.173 12.235 34.2743 11.5666 34.2743 10.8424V2.95729C34.2755 2.26693 33.993 1.63618 33.5406 1.18432ZM25.9822 31.8705C25.4614 31.8705 25.0394 31.4485 25.0394 30.9275C25.0394 30.4071 25.4614 29.9851 25.9822 29.9851C26.5029 29.9851 26.9249 30.4071 26.9249 30.9275C26.9249 31.4485 26.5029 31.8705 25.9822 31.8705ZM25.9822 25.2705C25.4614 25.2705 25.0394 24.8486 25.0394 24.3281C25.0394 23.8071 25.4614 23.3851 25.9822 23.3851C26.5029 23.3851 26.9249 23.8071 26.9249 24.3281C26.9249 24.8485 26.5029 25.2705 25.9822 25.2705ZM32.8603 10.8423C32.8598 11.6323 32.7152 12.3024 32.4704 12.8842C32.2864 13.3197 32.045 13.7068 31.7587 14.0545C31.3294 14.575 30.7949 15.006 30.2063 15.3537C29.6177 15.7015 28.9769 15.9642 28.3473 16.151C28.3439 16.1522 28.3315 16.1555 28.3152 16.16C28.282 16.1696 28.2347 16.1837 28.1785 16.2039C28.1357 16.2196 28.0874 16.2382 28.0338 16.2641C27.9534 16.3046 27.8577 16.3547 27.7452 16.4644C27.689 16.5201 27.6282 16.5933 27.5781 16.6934C27.5281 16.7936 27.4921 16.9235 27.4932 17.0563C27.4932 17.2494 27.4932 17.3557 27.4932 17.3557V21.4051H24.4718V17.3557C24.4718 17.3557 24.4718 17.2494 24.4718 17.0563C24.4726 16.9168 24.4329 16.7813 24.3789 16.6794C24.3316 16.5894 24.2768 16.5224 24.2253 16.4701C24.1344 16.3795 24.0537 16.3306 23.9842 16.2917C23.8801 16.2355 23.7954 16.2062 23.7288 16.1843C23.6953 16.1736 23.6669 16.1651 23.6455 16.159L23.6205 16.1523L23.6171 16.1511C23.0575 15.9857 22.4887 15.759 21.9564 15.4664C21.1566 15.027 20.4438 14.4429 19.9348 13.6935C19.6799 13.3187 19.4739 12.9013 19.3299 12.4309C19.1865 11.9599 19.1043 11.435 19.104 10.8425V2.95729C19.1046 2.65289 19.2252 2.38451 19.4242 2.18476C19.6242 1.98556 19.8928 1.86518 20.197 1.86457C20.5011 1.86511 20.7698 1.98556 20.9696 2.18476C21.1685 2.38451 21.2894 2.65289 21.2897 2.95729V10.4142C21.2892 10.9065 21.3946 11.3572 21.5769 11.7426C21.7134 12.0324 21.8917 12.2844 22.0931 12.4971C22.3961 12.8161 22.7492 13.0474 23.109 13.2016C23.4697 13.3557 23.8371 13.4356 24.1952 13.4367H24.9635L24.9 12.671C24.8926 12.5849 24.8893 12.5123 24.8896 12.4706V2.95729C24.8898 2.65289 25.0108 2.38451 25.2094 2.18476C25.4094 1.98556 25.678 1.86518 25.9822 1.86457C26.2863 1.86511 26.5549 1.98556 26.755 2.18476C26.954 2.38451 27.0745 2.65289 27.0752 2.95729V12.4707C27.0752 12.5124 27.0718 12.585 27.0645 12.671L27.0015 13.4368H27.7689C28.088 13.4356 28.4132 13.3721 28.7356 13.2505C29.216 13.0676 29.6949 12.7492 30.0646 12.2709C30.2485 12.0324 30.4027 11.7544 30.5097 11.4416C30.6166 11.1293 30.6751 10.7833 30.6751 10.4141V2.95729C30.6756 2.65289 30.796 2.38451 30.9952 2.18476C31.195 1.98556 31.4634 1.86518 31.7678 1.86457C32.0722 1.86511 32.3406 1.98556 32.5404 2.18476C32.7396 2.38451 32.8599 2.65289 32.8605 2.95729V10.8423H32.8603Z" fill="black"/>
</g>
<defs>
<clipPath id="clip0_5_38">
<rect width="35" height="35" fill="white"/>
</clipPath>
</defs>
</svg>
