<svg width="28" height="28" viewBox="0 0 28 28" fill="none" xmlns="http://www.w3.org/2000/svg">
<path d="M21.084 6.21875C20.7558 6.21875 20.5332 6.3242 20.2871 6.4414L7.11523 12.3594C6.44723 12.6758 5.91988 13.1914 5.91988 13.9414C5.91988 14.6797 6.43553 15.2188 7.12693 15.5234L20.2871 21.582C20.5215 21.6992 20.7324 21.7812 21.0371 21.7812C21.6465 21.7812 22.0801 21.3593 22.0801 20.7382C22.0801 20.1992 21.7988 19.8945 21.3066 19.6601L8.69723 14.0938V13.9649L21.3066 8.35155C21.7988 8.1172 22.0801 7.8125 22.0801 7.27345C22.0801 6.6289 21.6582 6.21875 21.084 6.21875Z" fill="black"/>
</svg>
