<svg width="28" height="28" viewBox="0 0 28 28" fill="none" xmlns="http://www.w3.org/2000/svg">
<path d="M6.91599 21.7812C7.24414 21.7812 7.46679 21.6758 7.71289 21.5586L20.8847 15.6406C21.5527 15.3242 22.0801 14.8086 22.0801 14.0586C22.0801 13.3203 21.5644 12.7812 20.873 12.4766L7.71289 6.41795C7.47849 6.3008 7.26754 6.21875 6.96289 6.21875C6.35349 6.21875 5.91989 6.64065 5.91989 7.26175C5.91989 7.8008 6.20114 8.1055 6.69334 8.33985L19.3027 13.9062V14.0351L6.69334 19.6485C6.20114 19.8828 5.91989 20.1875 5.91989 20.7265C5.91989 21.3711 6.34179 21.7812 6.91599 21.7812Z" fill="black"/>
</svg>
