<svg width="50" height="50" viewBox="0 0 50 50" fill="none" xmlns="http://www.w3.org/2000/svg">
<path d="M24.3542 22.2444L21.2727 25.0504C20.9673 25.3281 20.5821 25.4653 20.199 25.4653C19.7648 25.4653 19.3329 25.2897 19.018 24.9439C18.4253 24.2917 18.4721 23.2829 19.1244 22.6892L19.7054 22.1604L19.7649 22.1061L19.0871 22.0188C18.2125 21.905 17.5964 21.1048 17.7092 20.2302C17.823 19.3565 18.6232 18.7395 19.4979 18.8533L23.4753 19.3684C24.1467 19.4546 24.6649 19.9472 24.8182 20.5676C24.8416 20.6634 24.8575 20.7612 24.8629 20.8623C24.9256 21.3612 24.7543 21.8805 24.3542 22.2444Z" fill="#F4B74A"/>
<path d="M24.3542 22.2445L21.2727 25.0504C20.9673 25.3281 20.5821 25.4654 20.199 25.4654C19.7648 25.4654 19.3329 25.2898 19.018 24.944C18.4253 24.2917 18.4721 23.2829 19.1244 22.6892L19.7054 22.1604L24.8182 20.5675C24.8416 20.6633 24.8575 20.7612 24.8629 20.8622C24.9256 21.3613 24.7543 21.8805 24.3542 22.2445Z" fill="#EFA125"/>
<path d="M14.2117 36.6396C13.5077 36.1092 12.507 36.2499 11.9765 36.9537L9.61075 40.0928L9.4085 39.9456C8.69571 39.4267 7.69747 39.5841 7.17882 40.2967C6.65997 41.0094 6.81729 42.0077 7.52989 42.5263L8.7753 43.4329C8.83341 43.4932 8.89532 43.5509 8.96436 43.6029C9.25206 43.8198 9.58917 43.9244 9.92374 43.9244C10.4078 43.9244 10.8859 43.705 11.1996 43.2887L14.5261 38.8747C15.0564 38.171 14.9157 37.1702 14.2117 36.6396Z" fill="#477777"/>
<path d="M20.7808 36.7062C19.9781 36.3425 19.0322 36.6986 18.6683 37.5015L18.5651 37.7294L14.9581 36.1667C14.1491 35.816 13.2094 36.1879 12.8591 36.9968C12.5087 37.8057 12.8803 38.7454 13.6892 39.0958L18.7608 41.293C18.9674 41.3825 19.1826 41.4249 19.3945 41.4249C20.0113 41.4249 20.5989 41.0651 20.8598 40.4629C20.8942 40.3836 20.9195 40.303 20.9403 40.2219L21.5759 38.8186C21.9399 38.0157 21.5837 37.07 20.7808 36.7062Z" fill="#437171"/>
<path d="M20.596 34.5832C19.0436 36.8592 16.7611 38.5032 14.1563 39.2214C14.117 39.2331 14.0766 39.2438 14.0372 39.2544C13.0583 39.5119 12.0623 39.6396 11.0706 39.6396C9.17549 39.6406 7.29746 39.1725 5.59394 38.2563C5.54287 38.2286 5.49287 38.2009 5.44287 38.1722C5.40566 38.152 5.36943 38.1307 5.33223 38.1083C4.25752 37.4976 3.2999 36.725 2.48691 35.827C2.42519 35.7589 2.36455 35.6897 2.30498 35.6205C1.34844 34.5139 0.605663 33.2275 0.122557 31.8165C-0.0817397 31.2196 -0.028517 30.5588 0.268358 30.0033C0.565233 29.4489 1.0834 29.0404 1.68994 28.8797L8.39668 27.1091L9.89805 26.7133L11.127 26.3888L11.5165 26.2866L11.7367 26.2281L10.8004 22.6774C10.76 22.5231 10.7259 22.3688 10.7004 22.2134C10.4982 21.0217 10.7185 19.8054 11.3367 18.7435C12.0358 17.5432 13.1562 16.6877 14.4927 16.3345C17.2603 15.6045 20.1056 17.2613 20.8355 20.0279L22.554 26.5377C22.5562 26.5473 22.5583 26.5569 22.5604 26.5664C22.5923 26.6729 22.6146 26.7824 22.6242 26.8974C22.8603 29.5885 22.1399 32.3189 20.596 34.5832Z" fill="#BBD7D8"/>
<path d="M20.596 34.5832C19.0435 36.8592 16.7611 38.5032 14.1563 39.2214L11.1269 26.3888L11.5164 26.2867L11.7366 26.2282L10.8003 22.6774C10.7599 22.5231 10.7258 22.3688 10.7003 22.2135C10.4981 21.0218 10.7183 19.8055 11.3366 18.7435C12.0357 17.5432 13.1561 16.6878 14.4926 16.3346C17.2601 15.6046 20.1055 17.2613 20.8354 20.0279L22.5539 26.5378C22.556 26.5473 22.5582 26.5569 22.5602 26.5665C22.5922 26.6729 22.6145 26.7825 22.6241 26.8974C22.8602 29.5885 22.1399 32.3188 20.596 34.5832Z" fill="#B1CCCD"/>
<path d="M5.33204 38.1084C4.25733 37.4977 3.29971 36.7251 2.48672 35.8271C6.26309 34.6885 8.67637 31.0718 8.40821 27.2454C8.40499 27.1996 8.40186 27.155 8.39649 27.1092L9.89786 26.7134L11.5163 26.2867C12.1761 31.157 9.64473 35.9037 5.33204 38.1084Z" fill="#E8ECED"/>
<path d="M17.3807 20.9555L17.3779 20.945C17.2679 20.5364 17.0008 20.188 16.6347 19.9757L16.6285 19.972C16.2641 19.7607 15.8312 19.7015 15.4234 19.8072C15.0128 19.9137 14.6543 20.1847 14.4401 20.5509L14.4365 20.5571C14.2237 20.9246 14.1656 21.3618 14.275 21.772L14.2762 21.7769C14.385 22.1846 14.6503 22.5332 15.0145 22.7464L15.0189 22.7489C15.3867 22.9641 15.825 23.0241 16.237 22.9152L16.2505 22.9116C17.0955 22.6806 17.6025 21.8031 17.3807 20.9555Z" fill="#437171"/>
<path d="M25.6459 24.9179L28.7274 27.7239C29.0328 28.0016 29.418 28.1388 29.8011 28.1388C30.2353 28.1388 30.6672 27.9632 30.9821 27.6174C31.5748 26.9652 31.528 25.9564 30.8757 25.3626L30.2947 24.8338L30.2352 24.7795L30.913 24.6923C31.7876 24.5784 32.4037 23.7782 32.2909 22.9036C32.1771 22.03 31.3769 21.4129 30.5023 21.5268L26.5248 22.0418C25.8534 22.128 25.3352 22.6206 25.1819 23.241C25.1585 23.3368 25.1426 23.4347 25.1372 23.5358C25.0744 24.0347 25.2458 24.5539 25.6459 24.9179Z" fill="#F4B74A"/>
<path d="M25.6459 24.9179L28.7274 27.7238C29.0328 28.0016 29.418 28.1388 29.8011 28.1388C30.2353 28.1388 30.6672 27.9632 30.9821 27.6174C31.5748 26.9651 31.528 25.9563 30.8757 25.3626L30.2947 24.8338L25.1819 23.2409C25.1585 23.3367 25.1426 23.4346 25.1372 23.5356C25.0744 24.0347 25.2458 24.5539 25.6459 24.9179Z" fill="#EFA125"/>
<path d="M35.7882 39.3131C36.4922 38.7826 37.4929 38.9233 38.0234 39.6271L40.3892 42.7663L40.5914 42.619C41.3042 42.1002 42.3024 42.2575 42.8211 42.9701C43.3399 43.6828 43.1826 44.6812 42.47 45.1998L41.2246 46.1063C41.1665 46.1667 41.1046 46.2243 41.0356 46.2764C40.7479 46.4933 40.4107 46.5979 40.0762 46.5979C39.5921 46.5979 39.114 46.3784 38.8003 45.9622L35.4738 41.5481C34.9437 40.8444 35.0843 39.8437 35.7882 39.3131Z" fill="#477777"/>
<path d="M29.2192 39.3796C30.0218 39.0159 30.9678 39.372 31.3317 40.1749L31.4349 40.4028L35.0418 38.8401C35.8508 38.4894 36.7905 38.8613 37.1408 39.6702C37.4912 40.4791 37.1196 41.4188 36.3108 41.7692L31.2392 43.9664C31.0325 44.0559 30.8173 44.0983 30.6055 44.0983C29.9886 44.0983 29.401 43.7385 29.1402 43.1363C29.1058 43.057 29.0805 42.9764 29.0597 42.8953L28.424 41.492C28.0601 40.6891 28.4162 39.7434 29.2192 39.3796Z" fill="#437171"/>
<path d="M29.4041 37.2566C30.9565 39.5326 33.239 41.1766 35.8438 41.8948C35.8831 41.9065 35.9235 41.9172 35.9629 41.9278C36.9418 42.1853 37.9378 42.313 38.9295 42.313C40.8246 42.314 42.7026 41.8459 44.4062 40.9297C44.4572 40.902 44.5072 40.8743 44.5572 40.8456C44.5944 40.8254 44.6307 40.8041 44.6679 40.7817C45.7426 40.171 46.7002 39.3984 47.5132 38.5004C47.5749 38.4323 47.6355 38.3631 47.6951 38.2939C48.6517 37.1873 49.3944 35.9009 49.8775 34.4899C50.0818 33.893 50.0286 33.2322 49.7317 32.6767C49.4349 32.1223 48.9167 31.7138 48.3102 31.5531L41.6034 29.7825L40.1021 29.3867L38.873 29.0622L38.4836 28.96L38.2634 28.9015L39.1997 25.3508C39.2401 25.1965 39.2742 25.0422 39.2997 24.8868C39.5019 23.6951 39.2816 22.4788 38.6634 21.4169C37.9643 20.2166 36.8439 19.3611 35.5074 19.0079C32.7398 18.2779 29.8945 19.9346 29.1646 22.7013L27.4461 29.2111C27.4439 29.2207 27.4418 29.2303 27.4397 29.2398C27.4078 29.3463 27.3855 29.4558 27.3759 29.5708C27.1397 32.2619 27.8602 34.9923 29.4041 37.2566Z" fill="#BBD7D8"/>
<path d="M29.4041 37.2566C30.9565 39.5326 33.239 41.1767 35.8438 41.8948L38.8731 29.0623L38.4837 28.9602L38.2635 28.9017L39.1998 25.3509C39.2402 25.1966 39.2743 25.0423 39.2998 24.8869C39.502 23.6952 39.2817 22.4789 38.6635 21.417C37.9644 20.2167 36.8439 19.3612 35.5075 19.008C32.7399 18.278 29.8946 19.9348 29.1646 22.7014L27.4462 29.2112C27.444 29.2208 27.4419 29.2304 27.4398 29.2399C27.4079 29.3464 27.3855 29.456 27.376 29.5709C27.1397 32.2619 27.8602 34.9923 29.4041 37.2566Z" fill="#B1CCCD"/>
<path d="M44.668 40.7818C45.7427 40.1711 46.7003 39.3985 47.5133 38.5005C43.7369 37.3619 41.3236 33.7452 41.5918 29.9188C41.595 29.873 41.5982 29.8284 41.6035 29.7826L40.1022 29.3868L38.4837 28.9601C37.8238 33.8304 40.3554 38.5771 44.668 40.7818Z" fill="#E8ECED"/>
<path d="M32.6192 23.629L32.622 23.6185C32.732 23.2099 32.9991 22.8614 33.3652 22.6491L33.3714 22.6455C33.7358 22.4342 34.1687 22.375 34.5765 22.4807C34.9871 22.5871 35.3456 22.8582 35.5598 23.2243L35.5634 23.2306C35.7762 23.598 35.8344 24.0353 35.7249 24.4455L35.7236 24.4504C35.6149 24.8581 35.3496 25.2066 34.9854 25.4198L34.981 25.4224C34.6132 25.6376 34.1748 25.6976 33.7629 25.5887L33.7494 25.5851C32.9045 25.3541 32.3974 24.4766 32.6192 23.629Z" fill="#437171"/>
<path d="M32.2165 11.3569L26.3706 17.2028C26.0695 17.504 25.6779 17.6604 25.2842 17.6699C25.2703 17.671 25.2566 17.671 25.2427 17.671C24.8341 17.671 24.4255 17.5146 24.1137 17.2028C24.1137 17.2028 24.1137 17.2028 24.1126 17.2028L18.2891 11.3793C17.441 10.5855 16.9675 9.34697 16.9888 7.97324C17.0101 6.63574 17.4889 5.45674 18.3071 4.72578C20.1288 2.94775 23.0561 2.96162 24.8596 4.76514L25.2427 5.14824L25.2842 5.10674L25.6247 4.76514C27.4421 2.94775 30.3991 2.94775 32.2165 4.76514C34.0339 6.58252 34.0339 9.53955 32.2165 11.3569Z" fill="#F5888E"/>
<path d="M32.2165 11.3569L26.3706 17.2028C26.0694 17.504 25.6779 17.6604 25.2842 17.6699V5.10674L25.6247 4.76514C27.4421 2.94775 30.3991 2.94775 32.2165 4.76514C34.0339 6.58252 34.0339 9.53955 32.2165 11.3569Z" fill="#F76976"/>
</svg>
